<svg version="1.1" id="Capa_1" xmlns="http://www.w3.org/2000/svg" xmlns:xlink="http://www.w3.org/1999/xlink" x="0px" y="0px"
	 viewBox="0 0 60 60" style="enable-background:new 0 0 60 60;" xml:space="preserve">
<g fill="#0ce3ac">
	<path d="M0,42.799V51c0,0.162,0.043,0.315,0.117,0.451C1.298,56.346,11.864,60,25,60c13.106,0,23.655-3.639,24.875-8.516
		C49.955,51.341,50,51.176,50,51v-8.199C45.865,45.711,37.345,48,25,48C12.654,48,4.134,45.71,0,42.799z"/>
	<path d="M53,49.954c0,0.196-0.048,0.38-0.133,0.541c-0.139,0.586-0.4,1.156-0.76,1.707c4.305-1.514,7.167-3.609,7.767-6.007
		C59.955,46.051,60,45.885,60,45.71V37.51l-7,3.291V49.954z"/>
	<path d="M27.606,35.958C26.737,35.986,25.867,36,25,36c-0.869,0-1.742-0.014-2.614-0.042c-7.341-0.201-13.191-1.238-17.403-2.717
		C3.004,32.574,1.309,31.788,0,30.889V38v0.5V39v1.289C2.846,43.26,12.394,46,25,46s22.154-2.74,25-5.711V39v-0.5V38v-7.111
		c-1.318,0.905-3.028,1.697-5.025,2.367C40.765,34.728,34.927,35.759,27.606,35.958z"/>
	<path d="M52,29v8.471v0.533v0.533v0.209c3.873-1.031,6.673-2.362,8-3.748V33.71v-0.5v-0.5v-7.111
		c-1.318,0.905-3.028,1.697-5.025,2.367L52,29z"/>
	<path d="M0,18.979v7.111v0.5v0.5v1.289c2.638,2.754,11.033,5.31,22.286,5.668c0.115,0.004,0.233,0.005,0.349,0.008
		c0.326,0.009,0.651,0.018,0.982,0.023c0.457,0.007,0.917,0.011,1.383,0.011s0.926-0.004,1.383-0.011
		c0.33-0.005,0.656-0.014,0.982-0.023c0.116-0.003,0.234-0.005,0.349-0.008C38.967,33.688,47.362,31.132,50,28.378V27.09v-0.5v-0.5
		v-7.111c-4.867,3.344-15.156,5.111-25,5.111S4.867,22.322,0,18.979z"/>
	<path d="M25,5.29C9.923,5.29,1.303,9.51,0.146,13.8C0.062,13.947,0,14.108,0,14.29v0.5v1.806c2.836,2.961,12.316,5.694,25,5.694
		s22.164-2.733,25-5.694V14.79v-0.5c0-0.168-0.056-0.319-0.135-0.458C48.743,9.531,40.115,5.29,25,5.29z"/>
	<path d="M52,24.501v0.599V25.7v1.142c3.879-1.031,6.671-2.367,8-3.754v-1.289v-0.5v-0.5v-7.111c-1.932,1.327-4.727,2.402-8,3.22
		V24.501z"/>
	<path d="M59.865,8.542C58.743,4.241,50.115,0,35,0C24.873,0,17.676,1.907,13.68,4.457C17.16,3.725,21.268,3.29,26,3.29
		c15.72,0,24.692,4.74,25.86,9.547c0.082,0.155,0.14,0.324,0.14,0.512v0.559v1.142c3.88-1.029,6.674-2.359,8-3.744V9.5V9
		C60,8.832,59.944,8.681,59.865,8.542z"/>
</g>
</svg>
