<svg version="1.0" xmlns="http://www.w3.org/2000/svg" viewBox="0 0 877 877" preserveAspectRatio="xMidYMid meet">
<g transform="translate(0.000000,876.000000) scale(0.100000,-0.100000)" fill="none" stroke="none">
<path fill="#373535" d="M8043 8561 c-23 -16 -48 -39 -56 -51 -8 -12 -69 -78 -134 -148 -66
-70 -139 -149 -163 -177 -23 -27 -84 -95 -135 -150 -51 -55 -117 -127 -146
-161 -30 -33 -105 -116 -168 -185 -168 -183 -276 -302 -378 -414 -119 -132
-114 -129 -171 -122 -142 18 -274 41 -377 67 -22 5 -68 10 -103 10 -63 0 -129
8 -292 36 -47 8 -132 14 -190 14 -58 0 -160 7 -225 15 -315 40 -1235 48 -1645
14 -135 -11 -299 -24 -365 -29 -66 -6 -154 -17 -195 -25 -41 -8 -122 -20 -180
-25 -58 -5 -136 -16 -175 -26 -99 -23 -312 -41 -333 -27 -10 5 -54 54 -99 108
-46 53 -105 123 -132 154 -27 31 -67 79 -89 106 -41 52 -240 290 -321 384 -25
30 -57 69 -71 86 -21 27 -107 130 -164 195 -7 8 -44 53 -82 100 -192 237 -263
292 -331 257 -44 -23 -84 -83 -98 -147 -4 -19 -11 -41 -15 -50 -25 -50 -40
-94 -40 -114 0 -12 -3 -26 -7 -30 -12 -12 -43 -100 -43 -121 0 -12 -4 -25 -9
-30 -4 -6 -15 -32 -24 -60 -9 -27 -30 -93 -46 -146 -17 -53 -31 -107 -31 -121
0 -14 -3 -28 -7 -32 -9 -9 -43 -117 -43 -138 0 -10 -6 -32 -14 -50 -8 -18 -19
-53 -26 -78 -6 -25 -17 -67 -25 -95 -8 -27 -21 -81 -30 -120 -20 -83 -42 -168
-55 -211 -6 -17 -10 -39 -10 -49 0 -11 -6 -37 -14 -60 -18 -54 -36 -131 -36
-157 0 -12 -6 -44 -14 -72 -8 -28 -22 -89 -31 -136 -9 -47 -21 -101 -26 -120
-12 -47 -30 -142 -39 -212 -4 -31 -11 -61 -14 -67 -4 -6 -12 -46 -17 -89 -19
-160 -27 -208 -38 -235 -6 -16 -11 -46 -11 -67 0 -22 -5 -61 -10 -87 -15 -69
-25 -147 -69 -545 -5 -49 -13 -93 -16 -98 -4 -6 -11 -95 -16 -198 -10 -206
-23 -394 -38 -547 -14 -138 -14 -934 0 -1010 14 -80 28 -195 35 -280 2 -38 11
-95 19 -125 24 -98 45 -197 45 -218 0 -12 4 -31 9 -44 4 -13 15 -48 24 -78 8
-30 27 -92 41 -136 14 -45 26 -90 26 -101 0 -10 7 -28 15 -39 8 -10 15 -25 15
-31 0 -7 11 -36 24 -65 13 -29 31 -73 41 -98 34 -88 210 -435 232 -460 13 -14
23 -29 23 -34 0 -5 11 -24 25 -42 14 -18 25 -36 25 -41 0 -4 10 -19 23 -33 12
-14 34 -43 48 -65 27 -41 35 -50 148 -184 168 -200 478 -476 629 -561 15 -8
41 -25 59 -38 17 -12 35 -22 41 -22 5 0 14 -6 20 -13 6 -7 51 -32 99 -56 48
-24 102 -51 118 -59 38 -20 51 -26 100 -47 22 -10 48 -22 57 -26 10 -5 25 -9
34 -9 9 0 30 -6 47 -14 18 -8 57 -22 87 -32 30 -9 86 -28 123 -41 38 -12 81
-23 97 -23 16 0 31 -4 34 -9 3 -5 41 -16 83 -25 43 -10 105 -24 138 -31 219
-51 602 -68 1460 -63 780 5 1015 17 1206 64 31 8 71 14 88 14 38 0 115 17 159
36 18 8 44 14 58 14 30 0 130 26 156 40 10 6 23 10 29 10 6 0 26 7 45 15 19 8
49 22 68 30 19 8 39 15 45 15 6 0 19 4 29 9 9 4 35 16 57 26 35 15 58 26 115
56 8 5 36 17 62 29 26 11 50 24 53 30 3 5 13 10 22 10 9 0 31 11 49 25 18 14
35 25 37 25 3 0 31 18 63 40 33 23 82 56 109 74 193 127 465 375 605 549 52
66 105 131 118 145 13 15 27 34 30 42 4 8 47 75 96 148 48 73 114 183 145 245
32 61 62 121 68 132 21 39 63 134 63 142 0 4 14 35 30 68 16 33 30 67 30 75 0
9 4 20 9 25 10 12 31 68 41 115 4 19 18 60 29 90 12 30 21 64 21 75 0 11 6 31
13 45 17 32 37 108 47 180 5 30 18 90 29 134 12 43 21 101 21 128 0 27 6 77
14 111 37 161 38 209 37 1052 -1 771 -21 1610 -38 1639 -3 5 -10 194 -14 420
-5 226 -16 548 -25 716 -10 175 -19 563 -23 910 -7 672 -4 645 -74 689 -47 29
-86 27 -134 -8z m-6541 -462 c24 -28 66 -76 93 -106 28 -31 54 -62 59 -71 5
-9 21 -30 36 -47 78 -88 131 -149 185 -215 33 -40 87 -105 120 -144 33 -39 72
-87 87 -106 14 -19 36 -46 49 -59 12 -13 53 -61 90 -107 37 -45 77 -93 87
-106 11 -13 56 -66 99 -118 98 -118 113 -125 256 -110 55 5 116 14 136 19 20
5 56 15 80 21 24 6 78 16 120 20 42 5 135 18 206 29 72 12 166 21 209 21 44 0
129 7 190 15 252 33 320 35 968 35 632 0 869 -7 1093 -32 55 -6 147 -15 205
-19 113 -8 218 -22 290 -38 25 -6 71 -11 103 -11 53 0 142 -14 257 -40 82 -18
279 -31 319 -20 39 10 54 25 251 241 52 57 104 113 115 125 11 11 54 58 95
104 41 46 97 107 124 134 26 28 69 76 95 106 25 30 53 61 62 70 9 8 70 74 134
145 65 72 145 158 178 193 108 113 110 105 118 -318 13 -710 30 -1310 39
-1415 10 -100 18 -322 37 -959 6 -218 5 -229 -13 -240 -19 -10 -348 -11 -386
0 -14 4 -78 122 -78 145 0 4 -21 43 -47 84 -27 42 -53 86 -60 98 -28 50 -155
186 -243 261 -102 87 -165 136 -175 136 -3 0 -21 10 -38 23 -51 36 -69 46
-117 68 -25 11 -67 31 -95 44 -122 57 -269 85 -530 101 -88 5 -122 3 -167 -10
-31 -9 -73 -16 -95 -16 -21 0 -69 -10 -108 -21 -38 -11 -86 -24 -105 -28 -32
-7 -76 -29 -230 -114 -30 -16 -83 -51 -118 -76 -34 -25 -77 -56 -95 -69 -64
-46 -180 -169 -252 -268 -109 -152 -217 -390 -235 -524 -14 -100 -32 -162 -51
-181 -18 -18 -41 -19 -477 -19 l-459 0 -13 28 c-7 15 -17 47 -21 72 -23 131
-35 177 -65 248 -8 18 -14 39 -14 47 0 8 -11 35 -25 61 -14 26 -25 52 -25 58
0 6 -25 49 -55 95 -30 46 -55 88 -55 92 0 4 -35 47 -78 96 -43 48 -89 101
-102 116 -47 54 -255 203 -345 246 -49 24 -111 54 -137 67 -27 13 -57 24 -67
24 -11 0 -22 4 -25 9 -9 14 -142 40 -246 47 -194 15 -412 2 -520 -31 -30 -9
-68 -19 -85 -22 -16 -3 -66 -19 -110 -35 -123 -47 -147 -59 -212 -105 -17 -13
-35 -23 -39 -23 -22 0 -174 -128 -272 -230 -127 -129 -193 -232 -296 -458 -17
-39 -44 -46 -186 -47 -167 -1 -193 7 -185 63 3 20 12 84 20 141 8 58 15 127
15 155 0 28 6 80 14 116 21 96 36 192 36 235 0 22 6 64 14 94 8 31 20 90 26
131 11 74 16 103 46 250 8 41 19 98 24 125 5 28 16 79 25 115 9 36 18 81 21
100 3 19 11 58 19 85 8 28 19 77 26 110 6 33 17 83 24 110 7 28 21 82 30 120
9 39 23 95 31 125 8 30 20 73 25 95 6 22 15 54 21 70 5 17 14 48 18 70 16 78
31 130 41 139 5 6 9 19 9 30 0 25 33 132 43 142 4 4 7 15 7 25 0 20 27 112 46
156 8 17 14 37 14 45 0 7 10 38 21 68 12 30 24 69 26 85 3 17 14 42 25 57 24
35 40 28 100 -43z m-496 -3276 c2 -10 6 -124 8 -253 2 -188 6 -246 20 -290 10
-30 22 -73 28 -95 11 -43 23 -75 44 -117 8 -14 14 -33 14 -42 0 -9 11 -34 25
-56 14 -22 25 -43 25 -48 0 -4 23 -44 52 -88 29 -43 58 -90 65 -103 19 -35
151 -180 208 -230 52 -44 232 -168 275 -188 96 -45 164 -73 180 -73 10 0 21
-4 24 -9 6 -9 57 -25 171 -55 105 -27 304 -36 450 -22 72 8 144 18 160 24 17
6 61 19 98 28 37 10 70 21 73 26 3 4 16 8 30 8 23 0 168 66 244 112 39 23 145
101 175 129 77 71 167 164 191 196 16 21 39 49 52 63 12 14 22 29 22 34 0 5 9
19 20 31 17 18 31 42 77 130 43 82 63 124 63 135 0 7 6 26 13 43 33 77 57 173
64 259 3 40 11 64 26 80 l22 23 462 -5 c254 -3 464 -8 468 -11 8 -9 33 -116
44 -189 8 -53 39 -152 66 -215 22 -49 71 -148 86 -175 108 -186 356 -441 524
-537 68 -39 210 -103 229 -103 8 0 27 -7 42 -15 16 -8 39 -15 51 -15 12 0 25
-4 28 -10 3 -5 18 -10 33 -10 14 0 44 -6 67 -14 72 -25 296 -37 415 -22 58 7
116 18 127 25 12 6 38 11 57 11 42 0 146 26 160 40 5 5 16 10 24 10 18 0 229
103 277 135 20 14 38 25 42 25 17 0 214 184 286 268 75 86 197 267 197 292 0
5 11 29 24 53 13 25 26 55 29 68 3 13 13 44 22 69 10 25 23 72 30 105 7 33 20
96 29 140 20 94 23 318 6 371 -10 30 -9 38 6 55 15 17 31 19 165 19 143 0 149
-1 163 -22 29 -48 50 -994 26 -1184 -5 -43 -15 -155 -20 -249 -12 -196 -22
-288 -39 -365 -7 -30 -18 -84 -26 -120 -42 -196 -61 -270 -81 -318 -8 -18 -14
-42 -14 -53 0 -25 -30 -120 -41 -134 -5 -5 -9 -18 -9 -30 0 -11 -11 -40 -25
-64 -14 -23 -25 -47 -25 -53 0 -5 -13 -39 -30 -75 -17 -35 -30 -69 -30 -74 0
-5 -11 -27 -25 -49 -14 -22 -25 -44 -25 -50 0 -6 -11 -27 -24 -48 -12 -20 -27
-48 -31 -62 -4 -14 -30 -58 -56 -99 -27 -41 -49 -76 -49 -78 0 -2 -25 -38 -55
-78 -30 -41 -55 -77 -55 -80 0 -32 -390 -439 -533 -557 -72 -60 -212 -158
-224 -158 -3 0 -19 -10 -36 -22 -42 -31 -51 -35 -215 -117 -78 -39 -147 -71
-152 -71 -9 0 -67 -23 -102 -41 -10 -5 -23 -9 -29 -9 -6 0 -25 -6 -42 -14 -75
-32 -94 -38 -137 -46 -25 -5 -70 -16 -100 -25 -30 -10 -73 -21 -95 -25 -22 -4
-60 -12 -85 -18 -61 -15 -150 -28 -310 -47 -200 -24 -1925 -17 -2135 8 -77 10
-174 21 -216 26 -42 4 -82 12 -90 16 -7 5 -31 12 -54 16 -22 4 -67 15 -100 24
-33 9 -76 20 -95 24 -19 5 -48 14 -65 21 -16 7 -44 19 -62 26 -17 8 -36 14
-41 14 -37 0 -378 165 -487 235 -44 29 -105 68 -135 87 -30 20 -73 52 -94 72
-22 20 -43 36 -48 36 -14 0 -318 302 -356 354 -20 28 -57 76 -81 106 -114 142
-307 472 -385 660 -11 25 -32 73 -48 108 -15 34 -28 67 -28 72 0 6 -4 18 -9
28 -15 31 -33 86 -41 127 -4 22 -16 69 -28 105 -30 96 -61 239 -83 380 -11 69
-26 167 -35 218 -28 163 -19 1364 11 1413 2 3 5 53 6 110 4 153 -1 149 171
149 125 0 140 -2 144 -17z"/>
<path fill="#373535" d="M4340 3458 c-115 -16 -196 -46 -248 -92 -36 -32 -72 -110 -72 -156 0
-59 54 -136 120 -170 78 -40 81 -57 51 -277 -11 -76 -22 -221 -26 -323 -6
-183 -5 -203 35 -600 7 -63 20 -162 31 -220 24 -130 24 -123 -5 -184 -28 -59
-70 -102 -141 -142 -46 -26 -58 -29 -150 -29 -92 0 -103 2 -142 28 -24 15 -46
27 -50 27 -3 0 -14 6 -22 14 -16 14 -47 21 -87 18 -11 -1 -37 -19 -57 -39 -31
-31 -37 -43 -37 -80 0 -53 29 -96 93 -139 40 -27 56 -35 157 -71 62 -22 240
-21 295 1 104 43 130 57 209 108 71 45 105 48 151 12 19 -14 49 -33 67 -43 18
-9 42 -22 53 -28 11 -6 57 -22 101 -37 115 -37 247 -37 342 0 98 37 111 45
157 90 68 66 71 156 6 200 -54 37 -96 32 -167 -18 l-59 -43 -106 0 c-97 0
-110 2 -165 29 -64 32 -73 40 -120 101 -26 35 -41 64 -75 153 -5 13 -9 49 -9
80 0 31 -7 87 -14 124 -28 130 -38 334 -32 648 5 298 11 382 36 506 11 60 13
63 54 78 23 9 46 16 50 16 23 0 106 65 135 105 29 41 33 53 33 115 1 61 -3 74
-28 107 -16 21 -38 46 -49 55 -35 30 -118 65 -170 72 -27 4 -57 8 -65 10 -8 2
-44 -1 -80 -6z"/>
</g>
</svg>
