<svg viewBox="0 0 877 877" xmlns="http://www.w3.org/2000/svg" preserveAspectRatio="xMidYMid meet">
 <g>
  <path id="svg_4" d="m137.5,39l-70.5,260l-15,214l27,157l98,130l122,45l265,1l123,-49l75,-80l53,-117l8,-130l-12,-422l-26,8l-106,114l-170,-14l-107,-1c-48,5 -96,10 -144,15" stroke-width="1.5" stroke="#000" fill="#06f30d"/>
  <g id="svg_1" fill="none" transform="translate(0,876) scale(0.10000000149011612,-0.10000000149011612) ">
   <path id="svg_2" d="m8043,8561c-23,-16 -48,-39 -56,-51c-8,-12 -69,-78 -134,-148c-66,-70 -139,-149 -163,-177c-23,-27 -84,-95 -135,-150c-51,-55 -117,-127 -146,-161c-30,-33 -105,-116 -168,-185c-168,-183 -276,-302 -378,-414c-119,-132 -114,-129 -171,-122c-142,18 -274,41 -377,67c-22,5 -68,10 -103,10c-63,0 -129,8 -292,36c-47,8 -132,14 -190,14c-58,0 -160,7 -225,15c-315,40 -1235,48 -1645,14c-135,-11 -299,-24 -365,-29c-66,-6 -154,-17 -195,-25c-41,-8 -122,-20 -180,-25c-58,-5 -136,-16 -175,-26c-99,-23 -312,-41 -333,-27c-10,5 -54,54 -99,108c-46,53 -105,123 -132,154c-27,31 -67,79 -89,106c-41,52 -240,290 -321,384c-25,30 -57,69 -71,86c-21,27 -107,130 -164,195c-7,8 -44,53 -82,100c-192,237 -263,292 -331,257c-44,-23 -84,-83 -98,-147c-4,-19 -11,-41 -15,-50c-25,-50 -40,-94 -40,-114c0,-12 -3,-26 -7,-30c-12,-12 -43,-100 -43,-121c0,-12 -4,-25 -9,-30c-4,-6 -15,-32 -24,-60c-9,-27 -30,-93 -46,-146c-17,-53 -31,-107 -31,-121c0,-14 -3,-28 -7,-32c-9,-9 -43,-117 -43,-138c0,-10 -6,-32 -14,-50c-8,-18 -19,-53 -26,-78c-6,-25 -17,-67 -25,-95c-8,-27 -21,-81 -30,-120c-20,-83 -42,-168 -55,-211c-6,-17 -10,-39 -10,-49c0,-11 -6,-37 -14,-60c-18,-54 -36,-131 -36,-157c0,-12 -6,-44 -14,-72c-8,-28 -22,-89 -31,-136c-9,-47 -21,-101 -26,-120c-12,-47 -30,-142 -39,-212c-4,-31 -11,-61 -14,-67c-4,-6 -12,-46 -17,-89c-19,-160 -27,-208 -38,-235c-6,-16 -11,-46 -11,-67c0,-22 -5,-61 -10,-87c-15,-69 -25,-147 -69,-545c-5,-49 -13,-93 -16,-98c-4,-6 -11,-95 -16,-198c-10,-206 -23,-394 -38,-547c-14,-138 -14,-934 0,-1010c14,-80 28,-195 35,-280c2,-38 11,-95 19,-125c24,-98 45,-197 45,-218c0,-12 4,-31 9,-44c4,-13 15,-48 24,-78c8,-30 27,-92 41,-136c14,-45 26,-90 26,-101c0,-10 7,-28 15,-39c8,-10 15,-25 15,-31c0,-7 11,-36 24,-65c13,-29 31,-73 41,-98c34,-88 210,-435 232,-460c13,-14 23,-29 23,-34c0,-5 11,-24 25,-42c14,-18 25,-36 25,-41c0,-4 10,-19 23,-33c12,-14 34,-43 48,-65c27,-41 35,-50 148,-184c168,-200 478,-476 629,-561c15,-8 41,-25 59,-38c17,-12 35,-22 41,-22c5,0 14,-6 20,-13c6,-7 51,-32 99,-56c48,-24 102,-51 118,-59c38,-20 51,-26 100,-47c22,-10 48,-22 57,-26c10,-5 25,-9 34,-9c9,0 30,-6 47,-14c18,-8 57,-22 87,-32c30,-9 86,-28 123,-41c38,-12 81,-23 97,-23c16,0 31,-4 34,-9c3,-5 41,-16 83,-25c43,-10 105,-24 138,-31c219,-51 602,-68 1460,-63c780,5 1015,17 1206,64c31,8 71,14 88,14c38,0 115,17 159,36c18,8 44,14 58,14c30,0 130,26 156,40c10,6 23,10 29,10c6,0 26,7 45,15c19,8 49,22 68,30c19,8 39,15 45,15c6,0 19,4 29,9c9,4 35,16 57,26c35,15 58,26 115,56c8,5 36,17 62,29c26,11 50,24 53,30c3,5 13,10 22,10c9,0 31,11 49,25c18,14 35,25 37,25c3,0 31,18 63,40c33,23 82,56 109,74c193,127 465,375 605,549c52,66 105,131 118,145c13,15 27,34 30,42c4,8 47,75 96,148c48,73 114,183 145,245c32,61 62,121 68,132c21,39 63,134 63,142c0,4 14,35 30,68c16,33 30,67 30,75c0,9 4,20 9,25c10,12 31,68 41,115c4,19 18,60 29,90c12,30 21,64 21,75c0,11 6,31 13,45c17,32 37,108 47,180c5,30 18,90 29,134c12,43 21,101 21,128c0,27 6,77 14,111c37,161 38,209 37,1052c-1,771 -21,1610 -38,1639c-3,5 -10,194 -14,420c-5,226 -16,548 -25,716c-10,175 -19,563 -23,910c-7,672 -4,645 -74,689c-47,29 -86,27 -134,-8zm-6541,-462c24,-28 66,-76 93,-106c28,-31 54,-62 59,-71c5,-9 21,-30 36,-47c78,-88 131,-149 185,-215c33,-40 87,-105 120,-144c33,-39 72,-87 87,-106c14,-19 36,-46 49,-59c12,-13 53,-61 90,-107c37,-45 77,-93 87,-106c11,-13 56,-66 99,-118c98,-118 113,-125 256,-110c55,5 116,14 136,19c20,5 56,15 80,21c24,6 78,16 120,20c42,5 135,18 206,29c72,12 166,21 209,21c44,0 129,7 190,15c252,33 320,35 968,35c632,0 869,-7 1093,-32c55,-6 147,-15 205,-19c113,-8 218,-22 290,-38c25,-6 71,-11 103,-11c53,0 142,-14 257,-40c82,-18 279,-31 319,-20c39,10 54,25 251,241c52,57 104,113 115,125c11,11 54,58 95,104c41,46 97,107 124,134c26,28 69,76 95,106c25,30 53,61 62,70c9,8 70,74 134,145c65,72 145,158 178,193c108,113 110,105 118,-318c13,-710 30,-1310 39,-1415c10,-100 18,-322 37,-959c6,-218 5,-229 -13,-240c-19,-10 -348,-11 -386,0c-14,4 -78,122 -78,145c0,4 -21,43 -47,84c-27,42 -53,86 -60,98c-28,50 -155,186 -243,261c-102,87 -165,136 -175,136c-3,0 -21,10 -38,23c-51,36 -69,46 -117,68c-25,11 -67,31 -95,44c-122,57 -269,85 -530,101c-88,5 -122,3 -167,-10c-31,-9 -73,-16 -95,-16c-21,0 -69,-10 -108,-21c-38,-11 -86,-24 -105,-28c-32,-7 -76,-29 -230,-114c-30,-16 -83,-51 -118,-76c-34,-25 -77,-56 -95,-69c-64,-46 -180,-169 -252,-268c-109,-152 -217,-390 -235,-524c-14,-100 -32,-162 -51,-181c-18,-18 -41,-19 -477,-19l-459,0l-13,28c-7,15 -17,47 -21,72c-23,131 -35,177 -65,248c-8,18 -14,39 -14,47c0,8 -11,35 -25,61c-14,26 -25,52 -25,58c0,6 -25,49 -55,95c-30,46 -55,88 -55,92c0,4 -35,47 -78,96c-43,48 -89,101 -102,116c-47,54 -255,203 -345,246c-49,24 -111,54 -137,67c-27,13 -57,24 -67,24c-11,0 -22,4 -25,9c-9,14 -142,40 -246,47c-194,15 -412,2 -520,-31c-30,-9 -68,-19 -85,-22c-16,-3 -66,-19 -110,-35c-123,-47 -147,-59 -212,-105c-17,-13 -35,-23 -39,-23c-22,0 -174,-128 -272,-230c-127,-129 -193,-232 -296,-458c-17,-39 -44,-46 -186,-47c-167,-1 -193,7 -185,63c3,20 12,84 20,141c8,58 15,127 15,155c0,28 6,80 14,116c21,96 36,192 36,235c0,22 6,64 14,94c8,31 20,90 26,131c11,74 16,103 46,250c8,41 19,98 24,125c5,28 16,79 25,115c9,36 18,81 21,100c3,19 11,58 19,85c8,28 19,77 26,110c6,33 17,83 24,110c7,28 21,82 30,120c9,39 23,95 31,125c8,30 20,73 25,95c6,22 15,54 21,70c5,17 14,48 18,70c16,78 31,130 41,139c5,6 9,19 9,30c0,25 33,132 43,142c4,4 7,15 7,25c0,20 27,112 46,156c8,17 14,37 14,45c0,7 10,38 21,68c12,30 24,69 26,85c3,17 14,42 25,57c24,35 40,28 100,-43zm-496,-3276c2,-10 6,-124 8,-253c2,-188 6,-246 20,-290c10,-30 22,-73 28,-95c11,-43 23,-75 44,-117c8,-14 14,-33 14,-42c0,-9 11,-34 25,-56c14,-22 25,-43 25,-48c0,-4 23,-44 52,-88c29,-43 58,-90 65,-103c19,-35 151,-180 208,-230c52,-44 232,-168 275,-188c96,-45 164,-73 180,-73c10,0 21,-4 24,-9c6,-9 57,-25 171,-55c105,-27 304,-36 450,-22c72,8 144,18 160,24c17,6 61,19 98,28c37,10 70,21 73,26c3,4 16,8 30,8c23,0 168,66 244,112c39,23 145,101 175,129c77,71 167,164 191,196c16,21 39,49 52,63c12,14 22,29 22,34c0,5 9,19 20,31c17,18 31,42 77,130c43,82 63,124 63,135c0,7 6,26 13,43c33,77 57,173 64,259c3,40 11,64 26,80l22,23l462,-5c254,-3 464,-8 468,-11c8,-9 33,-116 44,-189c8,-53 39,-152 66,-215c22,-49 71,-148 86,-175c108,-186 356,-441 524,-537c68,-39 210,-103 229,-103c8,0 27,-7 42,-15c16,-8 39,-15 51,-15c12,0 25,-4 28,-10c3,-5 18,-10 33,-10c14,0 44,-6 67,-14c72,-25 296,-37 415,-22c58,7 116,18 127,25c12,6 38,11 57,11c42,0 146,26 160,40c5,5 16,10 24,10c18,0 229,103 277,135c20,14 38,25 42,25c17,0 214,184 286,268c75,86 197,267 197,292c0,5 11,29 24,53c13,25 26,55 29,68c3,13 13,44 22,69c10,25 23,72 30,105c7,33 20,96 29,140c20,94 23,318 6,371c-10,30 -9,38 6,55c15,17 31,19 165,19c143,0 149,-1 163,-22c29,-48 50,-994 26,-1184c-5,-43 -15,-155 -20,-249c-12,-196 -22,-288 -39,-365c-7,-30 -18,-84 -26,-120c-42,-196 -61,-270 -81,-318c-8,-18 -14,-42 -14,-53c0,-25 -30,-120 -41,-134c-5,-5 -9,-18 -9,-30c0,-11 -11,-40 -25,-64c-14,-23 -25,-47 -25,-53c0,-5 -13,-39 -30,-75c-17,-35 -30,-69 -30,-74c0,-5 -11,-27 -25,-49c-14,-22 -25,-44 -25,-50c0,-6 -11,-27 -24,-48c-12,-20 -27,-48 -31,-62c-4,-14 -30,-58 -56,-99c-27,-41 -49,-76 -49,-78c0,-2 -25,-38 -55,-78c-30,-41 -55,-77 -55,-80c0,-32 -390,-439 -533,-557c-72,-60 -212,-158 -224,-158c-3,0 -19,-10 -36,-22c-42,-31 -51,-35 -215,-117c-78,-39 -147,-71 -152,-71c-9,0 -67,-23 -102,-41c-10,-5 -23,-9 -29,-9c-6,0 -25,-6 -42,-14c-75,-32 -94,-38 -137,-46c-25,-5 -70,-16 -100,-25c-30,-10 -73,-21 -95,-25c-22,-4 -60,-12 -85,-18c-61,-15 -150,-28 -310,-47c-200,-24 -1925,-17 -2135,8c-77,10 -174,21 -216,26c-42,4 -82,12 -90,16c-7,5 -31,12 -54,16c-22,4 -67,15 -100,24c-33,9 -76,20 -95,24c-19,5 -48,14 -65,21c-16,7 -44,19 -62,26c-17,8 -36,14 -41,14c-37,0 -378,165 -487,235c-44,29 -105,68 -135,87c-30,20 -73,52 -94,72c-22,20 -43,36 -48,36c-14,0 -318,302 -356,354c-20,28 -57,76 -81,106c-114,142 -307,472 -385,660c-11,25 -32,73 -48,108c-15,34 -28,67 -28,72c0,6 -4,18 -9,28c-15,31 -33,86 -41,127c-4,22 -16,69 -28,105c-30,96 -61,239 -83,380c-11,69 -26,167 -35,218c-28,163 -19,1364 11,1413c2,3 5,53 6,110c4,153 -1,149 171,149c125,0 140,-2 144,-17z" fill="#373535"/>
   <path id="svg_3" d="m4340,3458c-115,-16 -196,-46 -248,-92c-36,-32 -72,-110 -72,-156c0,-59 54,-136 120,-170c78,-40 81,-57 51,-277c-11,-76 -22,-221 -26,-323c-6,-183 -5,-203 35,-600c7,-63 20,-162 31,-220c24,-130 24,-123 -5,-184c-28,-59 -70,-102 -141,-142c-46,-26 -58,-29 -150,-29c-92,0 -103,2 -142,28c-24,15 -46,27 -50,27c-3,0 -14,6 -22,14c-16,14 -47,21 -87,18c-11,-1 -37,-19 -57,-39c-31,-31 -37,-43 -37,-80c0,-53 29,-96 93,-139c40,-27 56,-35 157,-71c62,-22 240,-21 295,1c104,43 130,57 209,108c71,45 105,48 151,12c19,-14 49,-33 67,-43c18,-9 42,-22 53,-28c11,-6 57,-22 101,-37c115,-37 247,-37 342,0c98,37 111,45 157,90c68,66 71,156 6,200c-54,37 -96,32 -167,-18l-59,-43l-106,0c-97,0 -110,2 -165,29c-64,32 -73,40 -120,101c-26,35 -41,64 -75,153c-5,13 -9,49 -9,80c0,31 -7,87 -14,124c-28,130 -38,334 -32,648c5,298 11,382 36,506c11,60 13,63 54,78c23,9 46,16 50,16c23,0 106,65 135,105c29,41 33,53 33,115c1,61 -3,74 -28,107c-16,21 -38,46 -49,55c-35,30 -118,65 -170,72c-27,4 -57,8 -65,10c-8,2 -44,-1 -80,-6z" fill="#373535"/>
  </g>
 </g>
</svg>