<svg fill="#0ce3ac" enable-background="new 0 0 235.067 235.067" height="512" viewBox="0 0 235.067 235.067" width="512" xmlns="http://www.w3.org/2000/svg">
    <path d="m16.819 53.701c.764.764 1.767 1.148 2.77 1.148s2.006-.384 2.77-1.148l11.749-11.749c.364-.36.65-.795.85-1.277.396-.956.396-2.037 0-2.993-.2-.482-.486-.913-.85-1.277l-11.749-11.75c-1.528-1.532-4.012-1.532-5.54 0-1.532 1.532-1.532 4.008 0 5.54l5.066 5.066h-17.967c-2.163-.001-3.918 1.75-3.918 3.917v133.205c0 2.167 1.755 3.918 3.918 3.918h27.425c2.163 0 3.918-1.751 3.918-3.918s-1.755-3.918-3.918-3.918h-23.507v-125.369h14.049l-5.066 5.066c-1.532 1.531-1.532 4.007 0 5.539z"/>
    <path d="m231.15 35.26h-27.425c-2.163 0-3.918 1.751-3.918 3.918s1.755 3.918 3.918 3.918h23.507v125.369h-14.049l5.066-5.066c1.532-1.532 1.532-4.008 0-5.54-1.528-1.532-4.012-1.532-5.54 0l-11.749 11.749c-.364.36-.65.795-.85 1.277-.396.956-.396 2.037 0 2.993.2.482.486.913.85 1.277l11.749 11.749c.764.764 1.767 1.148 2.77 1.148s2.006-.384 2.77-1.148c1.532-1.532 1.532-4.008 0-5.54l-5.066-5.066h17.967c2.163 0 3.918-1.751 3.918-3.918v-133.202c-.001-2.167-1.756-3.918-3.918-3.918z"/>
    <path d="m108.836 56.279 12.616 12.619 12.615-12.619-12.615-5.046z"/>
    <path d="m122.905 43.374 9.356 3.741-10.809-19.46-10.809 19.46 9.356-3.741c.931-.372 1.974-.372 2.906 0z"/>
    <path d="m188.054 0h-141.041c-2.163 0-3.918 1.751-3.918 3.918v109.698c0 1.583.956 3.017 2.421 3.62.486.204.991.298 1.497.298 1.019 0 2.022-.4 2.77-1.148l22.363-22.359h115.908c2.163 0 3.918-1.751 3.918-3.918v-86.191c0-2.167-1.755-3.918-3.918-3.918zm-43.186 55.515c-.309 1.775-1.928 2.974-3.142 4.188-1.215 1.215-2.429 2.425-3.64 3.64-2.938 2.938-5.881 5.881-8.819 8.819-1.673 1.673-3.346 3.346-5.046 5.046-.764.764-1.767 1.148-2.77 1.148s-2.006-.384-2.77-1.148c-1.622-1.622-3.244-3.244-4.866-4.866-3.068-3.068-6.135-6.139-9.207-9.207-.995-.999-1.994-1.994-2.993-2.993-1.073-1.073-2.476-2.135-3.185-3.479-1.05-1.986.012-3.726.972-5.45.615-1.109 1.23-2.221 1.849-3.33 1.814-3.267 3.628-6.531 5.442-9.798 1.994-3.589 3.988-7.177 5.982-10.766 1.457-2.629 2.919-5.254 4.376-7.883.325-.584.65-1.164.972-1.747 1.383-2.488 5.469-2.488 6.852 0 .717 1.289 1.43 2.574 2.147 3.863 1.692 3.044 3.381 6.088 5.074 9.132 1.982 3.573 3.969 7.146 5.955 10.715 1.595 2.872 3.193 5.747 4.788 8.619.916 1.654 2.366 3.526 2.029 5.497z"/>
    <circle cx="117.534" cy="156.712" r="7.836"/>
    <circle cx="105.78" cy="180.218" r="7.836"/>
    <path d="m188.054 125.369h-141.041c-2.163 0-3.918 1.751-3.918 3.918v78.356c0 2.167 1.755 3.918 3.918 3.918h115.912l22.359 22.359c.748.748 1.751 1.148 2.774 1.148.501 0 1.015-.094 1.497-.298 1.465-.603 2.417-2.037 2.417-3.62v-101.863c0-2.166-1.755-3.918-3.918-3.918zm-58.767 70.521c-4.701 0-8.878-2.123-11.753-5.414-2.876 3.291-7.052 5.414-11.753 5.414-8.643 0-15.671-7.029-15.671-15.671 0-8.078 6.167-14.668 14.026-15.507-1.41-2.351-2.272-5.066-2.272-8 0-8.643 7.029-15.671 15.671-15.671 8.643 0 15.671 7.029 15.671 15.671 0 2.934-.862 5.653-2.268 8 7.855.838 14.022 7.428 14.022 15.507-.002 8.642-7.034 15.671-15.673 15.671z"/>
    <circle cx="129.287" cy="180.218" r="7.836"/>
</svg>