<?xml version="1.0" encoding="iso-8859-1"?>
<!-- Generator: Adobe Illustrator 19.0.0, SVG Export Plug-In . SVG Version: 6.00 Build 0)  -->
<svg version="1.1" id="Layer_1" xmlns="http://www.w3.org/2000/svg" xmlns:xlink="http://www.w3.org/1999/xlink" x="0px" y="0px"
	 viewBox="0 0 512 512" style="enable-background:new 0 0 512 512;" xml:space="preserve">
<circle style="fill:#A8ADF0;" cx="256" cy="256" r="256"/>
<path style="fill:#989FEC;" d="M256,0c-11.317,0-22.461,0.744-33.391,2.167C348.216,18.53,445.217,125.933,445.217,256
	s-97.002,237.47-222.609,253.833C233.539,511.256,244.683,512,256,512c141.385,0,256-114.616,256-256S397.385,0,256,0z"/>
<path style="fill:#FFFFFF;" d="M417.824,114.172l-1.264-3.206c-0.037-0.092-0.108-0.168-0.199-0.209l-3.138-1.425
	c-25.832-11.733-62.269-14.628-94.507-15.911h-36.31c-0.41,0-0.535,0.554-0.166,0.731l74.584,35.757
	c0.421,0.201,0.188,0.827-0.264,0.709c-33.543-8.76-67.429-13.194-100.89-13.194c-33.353,0-67.129,4.407-100.569,13.111
	c-0.455,0.118-0.686-0.515-0.259-0.712l77.201-35.667c0.374-0.173,0.252-0.733-0.161-0.733h-39.257
	c-32.237,1.283-68.676,4.178-94.507,15.911l-3.138,1.425c-0.091,0.041-0.163,0.116-0.199,0.209l-1.264,3.206
	C67.081,181.16,59.569,294.879,67.58,366.12l0.42,3.736l2.972,2.305c41.298,32.024,96.519,48.489,131.258,52.858l4.492,0.565
	c1.46,0.184,2.855-0.66,3.371-2.038l22.61-60.407c0.705-1.883-0.495-3.939-2.481-4.251l-6.938-1.09
	c-24.193-3.801-58.47-13.877-87.437-40.147c-0.618-0.561-0.022-1.569,0.76-1.279c2.354,0.875,4.95,1.889,7.623,2.933
	c6.55,2.559,13.324,5.205,17.744,6.255c31.064,7.386,62.565,11.132,93.694,11.132v-0.554h0.065l0.004,0.554
	c31.066,0,62.566-3.745,93.627-11.132c4.422-1.051,11.196-3.696,17.747-6.256c2.671-1.044,5.266-2.058,7.619-2.932
	c0.782-0.29,1.378,0.719,0.76,1.279c-28.87,26.154-63.19,36.204-87.437,40.002l-6.936,1.086c-1.986,0.311-3.188,2.365-2.484,4.248
	l22.614,60.556c0.515,1.379,1.911,2.224,3.371,2.04l4.496-0.565c34.737-4.369,89.954-20.834,131.253-52.858l2.972-2.305l0.42-3.736
	C451.771,294.879,444.259,181.159,417.824,114.172z M181.874,278.634c-28.083,2.504-51.512-20.923-49.011-49.006
	c1.918-21.527,19.252-38.863,40.78-40.783c28.083-2.504,51.512,20.923,49.011,49.006
	C220.735,259.378,203.401,276.714,181.874,278.634z M337.7,278.634c-28.083,2.504-51.512-20.923-49.011-49.006
	c1.918-21.527,19.252-38.863,40.78-40.783c28.082-2.504,51.512,20.923,49.011,49.006C376.561,259.378,359.227,276.714,337.7,278.634
	z"/>
<g>
</g>
<g>
</g>
<g>
</g>
<g>
</g>
<g>
</g>
<g>
</g>
<g>
</g>
<g>
</g>
<g>
</g>
<g>
</g>
<g>
</g>
<g>
</g>
<g>
</g>
<g>
</g>
<g>
</g>
</svg>
