<svg height="512pt" viewBox="0 -36 512 512" width="512pt" xmlns="http://www.w3.org/2000/svg" xmlns:xlink="http://www.w3.org/1999/xlink"><linearGradient id="a"><stop offset="0" stop-color="#45425a"/><stop offset="1" stop-color="#2d3251"/></linearGradient><linearGradient id="b" gradientTransform="matrix(.709873 -.709873 .709873 .709873 -1127.998243 750.892574)" gradientUnits="userSpaceOnUse" x1="1405.8383" x2="1393.5471" xlink:href="#a" y1="529.7853" y2="543.8839"/><linearGradient id="c" gradientTransform="matrix(.709873 -.709873 .709873 .709873 -1127.998243 750.892574)" gradientUnits="userSpaceOnUse" x1="1408.9502" x2="1392.4385" xlink:href="#a" y1="513.1646" y2="532.1044"/><linearGradient id="d"><stop offset="0" stop-color="#ffd459"/><stop offset=".2296" stop-color="#ffd355"/><stop offset=".4362" stop-color="#ffcf4a"/><stop offset=".634" stop-color="#ffc838"/><stop offset=".825" stop-color="#ffbf1f"/><stop offset="1" stop-color="#ffb400"/></linearGradient><linearGradient id="e" gradientUnits="userSpaceOnUse" x1="363.0369685414" x2="292.6980771412" xlink:href="#d" y1="194.766907484" y2="275.4498096034"/><linearGradient id="f" gradientUnits="userSpaceOnUse" x1="80.633509157" x2="96.410645348" xlink:href="#a" y1="32.40059458" y2="205.9489922888"/><linearGradient id="g" gradientUnits="userSpaceOnUse" x1="117.7140709724" x2="188.8751744906" xlink:href="#d" y1="263.4217197292" y2="397.533049512"/><linearGradient id="h"><stop offset="0" stop-color="#ff4974"/><stop offset=".3262" stop-color="#fe4672"/><stop offset=".5324" stop-color="#fb3e6c"/><stop offset=".7054" stop-color="#f52f60"/><stop offset=".8591" stop-color="#ee1a51"/><stop offset="1" stop-color="#e4003d"/></linearGradient><linearGradient id="i" gradientUnits="userSpaceOnUse" x1="107.0546279608" x2="107.0546279608" xlink:href="#h" y1="304.6957641308" y2="374.5139211896"/><linearGradient id="j" gradientUnits="userSpaceOnUse" x1="282.43839587" x2="282.43839587" xlink:href="#h" y1="349.2045456086" y2="397.4761271346"/><linearGradient id="k" gradientUnits="userSpaceOnUse" x1="94.8648062524" x2="191.7503067064" xlink:href="#d" y1="283.6154099748" y2="380.5008100366"/><linearGradient id="l" gradientUnits="userSpaceOnUse" x1="27.7016213148" x2="250.7342379334" xlink:href="#a" y1="327.9684831504" y2="327.9684831504"/><linearGradient id="m" gradientTransform="matrix(-1.003922 0 0 -1.003922 463.448445 3807.628349)" gradientUnits="userSpaceOnUse" x1="242.308" x2="403.6201" xlink:href="#a" y1="3466.0679" y2="3466.0679"/><linearGradient id="n"><stop offset="0" stop-color="#e4003d" stop-opacity="0"/><stop offset=".2224" stop-color="#dd073f" stop-opacity=".223529"/><stop offset=".5524" stop-color="#ca1b46" stop-opacity=".552941"/><stop offset=".9478" stop-color="#ab3c51" stop-opacity=".94902"/><stop offset="1" stop-color="#a64153"/></linearGradient><linearGradient id="o" gradientUnits="userSpaceOnUse" x1="182.1329347308" x2="93.106236085" xlink:href="#n" y1="370.8835384532" y2="281.8567394152"/><linearGradient id="p" gradientUnits="userSpaceOnUse" x1="121.6543644302" x2="160.0203479744" xlink:href="#h" y1="310.4049681526" y2="348.7709516968"/><linearGradient id="q" gradientUnits="userSpaceOnUse" x1="299.1011920494" x2="320.2881627218" xlink:href="#a" y1="17.9425115048" y2="250.9989881168"/><linearGradient id="r" gradientTransform="matrix(.897205 -.450359 .450359 .897205 -763.666974 310.282642)" gradientUnits="userSpaceOnUse" x1="1146.7975" x2="1018.8378" xlink:href="#d" y1="359.2119" y2="506.6909"/><linearGradient id="s" gradientUnits="userSpaceOnUse" x1="415.2031650742" x2="355.17254477" xlink:href="#n" y1="211.2550212354" y2="211.2550212354"/><linearGradient id="t"><stop offset="0" stop-color="#e4003d" stop-opacity="0"/><stop offset=".2814" stop-color="#d70e42" stop-opacity=".282353"/><stop offset=".8102" stop-color="#b4324e" stop-opacity=".811765"/><stop offset="1" stop-color="#a64153"/></linearGradient><linearGradient id="u" gradientTransform="matrix(.897205 -.450359 .450359 .897205 -763.666974 310.282642)" gradientUnits="userSpaceOnUse" x1="1118.8622" x2="935.459" xlink:href="#t" y1="426.8774" y2="483.5469"/><linearGradient id="v" gradientUnits="userSpaceOnUse" x1="423.3847278054" x2="294.9230694698" xlink:href="#d" y1="147.6702158746" y2="295.7276285126"/><linearGradient id="w" gradientUnits="userSpaceOnUse" x1="395.3397651666" x2="211.2173582084" xlink:href="#t" y1="215.6012003578" y2="272.4929581368"/><linearGradient id="x" gradientUnits="userSpaceOnUse" x1="396.7562991086" x2="329.7747236608" xlink:href="#n" y1="163.2624296332" y2="96.2808541854"/><linearGradient id="y" gradientUnits="userSpaceOnUse" x1="359.0005997482" x2="359.0005997482" xlink:href="#a" y1="110.9614063758" y2="154.5976792434"/><linearGradient id="z" gradientTransform="matrix(-1.003922 0 0 -1.003922 805.814011 3996.976189)" gradientUnits="userSpaceOnUse" x1="445.0682" x2="445.0682" xlink:href="#a" y1="3846.9109" y2="3875.2173"/><linearGradient id="A" gradientUnits="userSpaceOnUse" x1="352.435853398" x2="365.4036142642" xlink:href="#d" y1="118.9420843148" y2="131.9099455732"/><linearGradient id="B" gradientUnits="userSpaceOnUse" x1="359.0005997482" x2="359.0005997482" xlink:href="#a" y1="345.2898521618" y2="448.6745428594"/><linearGradient id="C" gradientTransform="matrix(-1.003922 0 0 -1.003922 805.814011 3996.976189)" gradientUnits="userSpaceOnUse" x1="445.0682" x2="445.0682" xlink:href="#a" y1="3580.7405" y2="3647.8044"/><linearGradient id="D" gradientUnits="userSpaceOnUse" x1="343.4471373788" x2="374.1709654824" xlink:href="#d" y1="364.1979198942" y2="394.92184839"/><linearGradient id="E" gradientUnits="userSpaceOnUse" x1="176.215416894" x2="182.4217630902" xlink:href="#d" y1="-5.6381103922" y2="62.6319989426"/><linearGradient id="F" gradientUnits="userSpaceOnUse" x1="529.6789852434" x2="438.1395702238" xlink:href="#d" y1="254.2853267838" y2="359.7883932936"/><path d="m265.050781 142.324219-18.53125 18.53125-17.554687-17.554688 18.53125-18.53125zm0 0" fill="url(#b)"/><path d="m260.660156 122.332031-34.132812 34.132813c-3.230469 3.234375-8.46875 3.234375-11.703125 0-3.230469-3.230469-3.230469-8.46875 0-11.703125l34.132812-34.132813c3.234375-3.230468 8.472657-3.230468 11.703125 0 3.234375 3.234375 3.234375 8.472656 0 11.703125zm0 0" fill="url(#c)"/><path d="m358.3125 261.699219v118.046875h-59.042969l-96.117187-181.140625 93.167968-93.167969 52.902344 114.816406c5.988282 12.996094 9.089844 27.136719 9.089844 41.445313zm0 0" fill="url(#e)"/><path d="m88.523438 206.632812c-4.160157 0-7.53125-3.367187-7.53125-7.527343v-159.859375c0-4.160156 3.371093-7.53125 7.53125-7.53125 4.15625 0 7.527343 3.371094 7.527343 7.53125v159.859375c0 4.160156-3.371093 7.527343-7.527343 7.527343zm0 0" fill="url(#f)"/><path d="m313.152344 358.925781h-301.515625v-81.476562c0-56.113281 45.488281-101.601563 101.601562-101.601563h73.613281c26.964844 0 51.417969 15.839844 62.4375 40.453125zm0 0" fill="url(#g)"/><path d="m214.109375 368.308594h-187.183594c-14.871093 0-26.925781-12.058594-26.925781-26.929688v-26.820312c0-14.871094 12.054688-26.929688 26.925781-26.929688h187.183594zm0 0" fill="url(#i)"/><path d="m214.109375 337.40625h136.65625v55.78125h-136.65625zm0 0" fill="url(#j)"/><path d="m213.929688 327.96875c0 41.261719-33.449219 74.710938-74.710938 74.710938-41.265625 0-74.714844-33.449219-74.714844-74.710938s33.449219-74.714844 74.714844-74.714844c41.261719 0 74.710938 33.453125 74.710938 74.714844zm0 0" fill="url(#k)"/>

<g>
<animateTransform attributeName="transform"
                          attributeType="XML"
                          type="rotate"
                          from="0 139.5 328.5"
                          to="360 139.5 328.5"
                          dur="8s"
                          repeatCount="indefinite"/>
<path id="back-round" d="m240.914062 296.765625h-2.667968c-8.75 0-13.128906-10.570313-6.941406-16.761719l1.882812-1.882812c3.835938-3.835938 3.835938-10.050782 0-13.886719l-30.234375-30.234375c-3.835937-3.839844-10.050781-3.839844-13.886719 0l-1.886718 1.882812c-6.1875 6.183594-16.761719 1.808594-16.761719-6.945312v-2.667969c0-5.417969-4.394531-9.816406-9.820313-9.816406h-42.761718c-5.421876 0-9.820313 4.394531-9.820313 9.816406v2.667969c0 8.753906-10.570313 13.128906-16.761719 6.945312l-1.886718-1.882812c-3.835938-3.839844-10.050782-3.839844-13.886719 0l-30.234375 30.230469c-3.835938 3.839843-3.835938 10.054687 0 13.890625l1.886718 1.882812c6.183594 6.191406 1.804688 16.761719-6.945312 16.761719h-2.667969c-5.421875 0-9.820312 4.398437-9.820312 9.820313v42.765624c0 5.417969 4.398437 9.816407 9.820312 9.816407h2.667969c8.75 0 13.128906 10.574219 6.945312 16.761719l-1.886718 1.886718c-3.835938 3.835938-3.835938 10.050782 0 13.886719l30.234375 30.234375c3.839843 3.835938 10.050781 3.835938 13.886719 0l1.886718-1.882812c6.191406-6.1875 16.761719-1.808594 16.761719 6.941406v2.667968c0 5.421876 4.398437 9.820313 9.820313 9.820313h42.761718c4.066406 0 7.542969-2.472656 9.03125-5.988281.011719-.023438.019532-.046875.03125-.070313.070313-.171875.140625-.34375.203125-.523437.074219-.207032.140625-.421875.203125-.636719.027344-.101563.050782-.207031.082032-.3125.050781-.210937.09375-.421875.128906-.636719.019531-.109375.035156-.214844.050781-.320312.027344-.199219.046875-.398438.0625-.601563.007813-.070312.011719-.152343.011719-.230469.011718-.164062.015625-.335937.015625-.5v-2.667968c0-8.75 10.570312-13.128906 16.761719-6.941406l1.886718 1.882812c3.835938 3.835938 10.050782 3.835938 13.886719 0l30.234375-30.234375c3.835938-3.835937 3.835938-10.050781 0-13.886719l-1.886719-1.886718c-6.183593-6.1875-1.804687-16.761719 6.945313-16.761719h2.667968c.164063 0 .332032-.003907.496094-.011719.078125 0 .160156-.007812.234375-.015625.203125-.015625.402344-.035156.597657-.0625.109374-.015625.214843-.03125.324218-.046875.214844-.035156.425782-.078125.632813-.132812.105469-.027344.214843-.050782.316406-.082032.214844-.058594.429687-.128906.636719-.203125.175781-.0625.347656-.128906.519531-.203125.023437-.007812.050781-.015625.074219-.027344 3.515625-1.492187 5.988281-4.96875 5.988281-9.03125v-42.765624c0-5.421876-4.398437-9.820313-9.820313-9.820313zm-170.851562 31.203125c0-38.199219 30.957031-69.15625 69.15625-69.15625s69.15625 30.957031 69.15625 69.15625-30.957031 69.15625-69.15625 69.15625-69.15625-30.957031-69.15625-69.15625zm0 0" fill="url(#l)">
</path>
</g>

<path d="m139.21875 246.996094c-44.722656 0-80.972656 36.25-80.972656 80.972656s36.25 80.972656 80.972656 80.972656c1.371094 0 2.738281-.035156 4.09375-.101562 41.464844-2.0625 74.714844-35.3125 76.777344-76.777344.066406-1.355469.101562-2.722656.101562-4.09375 0-44.722656-36.25-80.972656-80.972656-80.972656zm0 11.816406c38.195312 0 69.15625 30.957031 69.15625 69.15625s-30.957031 69.15625-69.15625 69.15625-69.15625-30.957031-69.15625-69.15625 30.957031-69.15625 69.15625-69.15625zm0 0" fill="url(#m)"/>
<path d="m208.652344 355.597656c-.15625-.148437-.300782-.308594-.460938-.457031-.503906-.546875-1.03125-1.070313-1.574218-1.578125l-45.710938-45.707031c-5.402344-5.824219-13.117188-9.472657-21.6875-9.472657-16.339844 0-29.585938 13.246094-29.585938 29.585938 0 8.570312 3.648438 16.285156 9.472657 21.6875l47.742187 47.746094c19.039063-7.582032 34.222656-22.765625 41.804688-41.804688zm0 0" fill="url(#o)"/><path d="m168.804688 327.96875c0 16.339844-13.246094 29.585938-29.585938 29.585938s-29.585938-13.246094-29.585938-29.585938 13.246094-29.585938 29.585938-29.585938 29.585938 13.246094 29.585938 29.585938zm0 0" fill="url(#p)"/><path d="m358.316406 247.511719c-2.847656 0-5.574218-1.625-6.84375-4.382813l-97.234375-211.015625c-1.738281-3.777343-.085937-8.25 3.6875-9.988281 3.78125-1.746094 8.25-.089844 9.992188 3.6875l97.230469 211.015625c1.742187 3.777344.089843 8.25-3.6875 9.988281-1.019532.472656-2.089844.695313-3.144532.695313zm0 0" fill="url(#q)"/><path d="m461.269531 327.730469c-16.082031 8.074219-35.664062 1.582031-43.738281-14.5l-87.703125-174.714844c-8.074219-16.082031-1.582031-35.660156 14.5-43.734375s35.664063-1.582031 43.734375 14.5l87.707031 174.710938c8.074219 16.082031 1.582031 35.664062-14.5 43.738281zm0 0" fill="url(#r)"/><path d="m461.269531 327.730469c-16.082031 8.074219-35.664062 1.582031-43.738281-14.5l-87.703125-174.714844c-8.074219-16.082031-1.582031-35.660156 14.5-43.734375s35.664063-1.582031 43.734375 14.5l87.707031 174.710938c8.074219 16.082031 1.582031 35.664062-14.5 43.738281zm0 0" fill="url(#s)"/><path d="m360.550781 91.359375c-6.316406 9.433594-7.523437 21.898437-2.066406 32.773437l87.707031 174.710938c5.457032 10.871094 16.171875 17.351562 27.511719 17.921875 6.316406-9.433594 7.523437-21.902344 2.066406-32.769531l-87.707031-174.714844c-5.457031-10.871094-16.171875-17.351562-27.511719-17.921875zm0 0" fill="url(#u)"/><path d="m359 352.203125c-17.992188 0-32.582031-14.585937-32.582031-32.582031v-195.492188c0-17.992187 14.585937-32.582031 32.582031-32.582031 17.992188 0 32.582031 14.585937 32.582031 32.582031v195.492188c0 17.996094-14.585937 32.582031-32.582031 32.582031zm0 0" fill="url(#v)"/><path d="m375.035156 95.769531c-9.878906 5.597657-16.550781 16.195313-16.550781 28.359375v195.492188c0 12.164062 6.671875 22.761718 16.550781 28.359375 9.875-5.597657 16.546875-16.195313 16.546875-28.359375v-195.492188c0-12.164062-6.671875-22.761718-16.546875-28.359375zm0 0" fill="url(#w)"/><path d="m359 100.292969c-13.925781 0-25.210938 11.289062-25.210938 25.214843 0 7.289063 3.097657 13.851563 8.042969 18.453126l49.75 49.753906v-69.582032c0-.574218-.015625-1.144531-.046875-1.714843l-14.082031-14.082031c-4.601563-4.945313-11.164063-8.042969-18.453125-8.042969zm0 0" fill="url(#x)"/><path d="m384.210938 125.507812c0 13.925782-11.285157 25.210938-25.210938 25.210938s-25.210938-11.285156-25.210938-25.210938c0-13.925781 11.285157-25.214843 25.210938-25.214843s25.210938 11.289062 25.210938 25.214843zm0 0" fill="url(#y)"/><path d="m375.417969 125.507812c0 9.066407-7.347657 16.417969-16.417969 16.417969-9.066406 0-16.417969-7.351562-16.417969-16.417969 0-9.070312 7.351563-16.417968 16.417969-16.417968 9.070312 0 16.417969 7.347656 16.417969 16.417968zm0 0" fill="url(#z)"/><path d="m370.730469 125.507812c0 6.476563-5.25 11.730469-11.730469 11.730469-6.476562 0-11.730469-5.253906-11.730469-11.730469 0-6.480468 5.253907-11.730468 11.730469-11.730468 6.480469 0 11.730469 5.25 11.730469 11.730468zm0 0" fill="url(#A)"/>

<g>
        <animateTransform attributeName="transform"
                          attributeType="XML"
                          type="rotate"
                          from="0 359.5 379.5"
                          to="360 359.5 379.5"
                          dur="5s"
                          repeatCount="indefinite"/>
<path id="front-round" d="m418.734375 379.75c0 32.992188-26.746094 59.734375-59.734375 59.734375s-59.734375-26.742187-59.734375-59.734375c0-32.988281 26.746094-59.730469 59.734375-59.730469s59.734375 26.742188 59.734375 59.730469zm0 0" fill="url(#B)"/>

<path d="m397.898438 379.75c0 21.484375-17.414063 38.902344-38.898438 38.902344s-38.898438-17.417969-38.898438-38.902344 17.414063-38.898438 38.898438-38.898438 38.898438 17.414063 38.898438 38.898438zm0 0" fill="url(#C)"/>
<path d="m386.792969 379.75c0 15.351562-12.445313 27.792969-27.792969 27.792969s-27.792969-12.441407-27.792969-27.792969c0-15.347656 12.445313-27.789062 27.792969-27.789062s27.792969 12.441406 27.792969 27.789062zm0 0" fill="url(#D)"/>
</g>
<path d="m263.148438 57.925781h-167.574219c-15.996094 0-28.960938-12.96875-28.960938-28.960937 0-15.996094 12.964844-28.964844 28.960938-28.964844h167.574219c15.996093 0 28.960937 12.96875 28.960937 28.964844 0 15.992187-12.96875 28.960937-28.960937 28.960937zm0 0" fill="url(#E)"/><path d="m498.8125 393.183594c-46.699219 0-84.558594-37.855469-84.558594-84.554688 0-46.699218 37.859375-84.558594 84.558594-84.558594 7.285156 0 13.1875 5.902344 13.1875 13.1875v142.738282c0 7.285156-5.902344 13.1875-13.1875 13.1875zm0 0" fill="url(#F)"/>

<g>
        <animateTransform attributeName="transform"
                          attributeType="XML"
                          type="rotate"
                          from="0 359.5 379.5"
                          to="360 359.5 379.5"
                          dur="5s"
                            repeatCount="indefinite"/>
    <circle cx="359.5" cy="379.5" r="12" fill="none" style="stroke-dasharray: 18 100; stroke:#ffd355;stroke-width: 26;"/>
</g>
</svg>