<?xml version="1.0" encoding="iso-8859-1"?>
<!-- Generator: Adobe Illustrator 19.0.0, SVG Export Plug-In . SVG Version: 6.00 Build 0)  -->
<svg version="1.1" id="Capa_1" xmlns="http://www.w3.org/2000/svg" xmlns:xlink="http://www.w3.org/1999/xlink" x="0px" y="0px"
	 viewBox="0 0 511.999 511.999" style="enable-background:new 0 0 511.999 511.999;" xml:space="preserve">
<path style="fill:#484655;" d="M450.587,236.227l-27.921-87.283c-18.422-57.59-59.575-105.351-114.177-131.328
	c-6.469-3.077-12.258-5.422-16.897-6.656c-17.401-4.631-54.642-4.567-72.027,0.124c-4.635,1.251-10.416,3.615-16.875,6.715
	c-54.512,26.163-95.501,74.065-113.725,131.719l-27.621,87.378c-7.779,24.607-0.315,51.486,19.038,68.559l80.534,71.048
	c-19.968,13.54-33.091,36.417-33.091,62.361v65.636h256.35v-65.636c0-25.933-13.112-48.8-33.066-62.343l80.678-71.669
	C451.079,287.712,458.451,260.807,450.587,236.227z"/>
<g>
	<path style="fill:#35343F;" d="M450.587,236.227l-27.921-87.283c-18.422-57.59-59.575-105.351-114.177-131.328
		c-6.469-3.077-12.258-5.422-16.897-6.656c-11.18-2.976-30.547-4.009-47.579-3.127c9.158,0.479,17.587,1.519,23.626,3.127
		c4.639,1.234,10.429,3.579,16.897,6.656c54.601,25.977,95.755,73.738,114.177,131.328l27.921,87.283
		c7.863,24.58,0.491,51.485-18.802,68.624l-80.678,71.669c19.954,13.542,33.066,36.41,33.066,62.343V504.5h23.954v-65.636
		c0-25.933-13.112-48.8-33.066-62.343l80.678-71.669C451.079,287.712,458.451,260.807,450.587,236.227z"/>
	<path style="fill:#35343F;" d="M408.991,295.611L255.999,433.973L103.007,295.611c0,0,1.23-2.9,3.41-7.72
		c4.76-10.529,13.999-30.238,24.669-48.887c4.11-7.2,8.44-14.249,12.809-20.549c7.21-10.409,14.509-18.779,21.109-22.439
		c39.778-22.089,142.212-22.089,181.99,0c6.6,3.66,13.899,12.029,21.109,22.439c4.37,6.3,8.7,13.349,12.809,20.549
		c10.669,18.649,19.909,38.358,24.669,48.887C407.761,292.711,408.991,295.611,408.991,295.611z"/>
</g>
<g>
	<path style="fill:#FA9E3E;" d="M298.097,363.877v-96.136h-84.195v96.28l-10.641,0.018c-7.36,0.013-14.463,1.099-21.184,3.078
		l73.923,66.854l74.228-67.13c-6.706-1.942-13.786-2.997-21.119-2.984L298.097,363.877z"/>
	<path style="fill:#FA9E3E;" d="M400.424,276.752c-5.047-10.658-11.911-24.464-19.512-37.748
		c-2.941-5.152-5.995-10.221-9.094-14.999h-35.033v56.607h49.367C391.362,280.612,396.235,279.203,400.424,276.752z"/>
	<path style="fill:#FA9E3E;" d="M131.086,239.004c-7.601,13.284-14.465,27.09-19.512,37.748c4.189,2.451,9.063,3.86,14.272,3.86
		h49.367v-56.607H140.18C137.081,228.783,134.027,233.852,131.086,239.004z"/>
</g>
<path style="fill:#F0EEEE;" d="M346.994,196.016c-39.778-22.089-142.212-22.089-181.99,0c-6.6,3.66-13.899,12.029-21.109,22.439
	v12.239c0,17.939,4.21,34.888,11.699,49.917c18.359,36.858,56.427,62.187,100.405,62.187s82.045-25.329,100.404-62.187
	c7.49-15.029,11.699-31.978,11.699-49.917v-12.239C360.893,208.046,353.594,199.676,346.994,196.016z"/>
<g>
	<path style="fill:#D9D4D4;" d="M346.994,196.016c-39.778-22.089-142.212-22.089-181.99,0c-4.378,2.428-9.065,6.937-13.828,12.729
		c55.134-9.645,136.738-20.973,209.534,62.045c4.771-12.449,7.394-25.963,7.394-40.096v-12.239
		C360.893,208.046,353.594,199.676,346.994,196.016z"/>
	<path style="fill:#D9D4D4;" d="M346.994,196.016c-0.718-0.399-1.462-0.788-2.22-1.172v47.512c0,53.532-41.88,97.277-94.662,100.273
		c0.329,0.017,0.656,0.039,0.985,0.053c0.431,0.019,0.862,0.038,1.295,0.052c1.198,0.038,2.399,0.065,3.607,0.065l0,0
		c0.004,0,0.007,0,0.011,0c1.221,0,2.436-0.027,3.648-0.066c0.335-0.011,0.668-0.024,1.002-0.038
		c1.003-0.041,2.002-0.095,2.998-0.162c0.231-0.016,0.463-0.027,0.694-0.044c1.193-0.088,2.38-0.196,3.563-0.321
		c0.286-0.03,0.57-0.065,0.855-0.098c0.206-0.023,0.41-0.053,0.616-0.078c0.751-0.089,1.501-0.18,2.247-0.284
		c0.294-0.041,0.589-0.08,0.882-0.124c0.463-0.068,0.922-0.152,1.383-0.225c0.71-0.114,1.422-0.219,2.128-0.347
		c0.154-0.028,0.307-0.06,0.461-0.088c0.563-0.104,1.121-0.223,1.681-0.336c0.462-0.093,0.927-0.179,1.387-0.277
		c0.302-0.065,0.603-0.13,0.904-0.197c1.083-0.241,2.161-0.494,3.232-0.766c0.072-0.018,0.145-0.035,0.216-0.053
		c1.149-0.294,2.288-0.611,3.422-0.94c0.271-0.079,0.54-0.16,0.81-0.241c0.944-0.282,1.883-0.576,2.816-0.882
		c0.208-0.068,0.418-0.134,0.626-0.203c0.196-0.066,0.388-0.139,0.583-0.205c0.918-0.313,1.833-0.629,2.74-0.965
		c0.192-0.071,0.383-0.146,0.574-0.218c0.936-0.353,1.866-0.717,2.791-1.094c0.241-0.098,0.482-0.195,0.722-0.295
		c1.094-0.455,2.181-0.922,3.257-1.41c0.008-0.004,0.017-0.008,0.025-0.012c0.461-0.209,0.913-0.434,1.37-0.65
		c0.589-0.277,1.181-0.55,1.765-0.837c0.234-0.115,0.467-0.231,0.7-0.348c0.967-0.484,1.928-0.979,2.879-1.491
		c0.079-0.042,0.159-0.083,0.238-0.126c1.04-0.562,2.069-1.143,3.089-1.736c0.191-0.111,0.381-0.225,0.571-0.338
		c0.868-0.512,1.729-1.036,2.583-1.571c0.17-0.106,0.341-0.211,0.51-0.319c0.999-0.634,1.987-1.281,2.964-1.945
		c0.097-0.066,0.192-0.134,0.289-0.2c0.101-0.069,0.199-0.142,0.299-0.212c0.772-0.532,1.539-1.071,2.297-1.622
		c0.191-0.139,0.383-0.278,0.573-0.418c0.002-0.001,0.004-0.003,0.006-0.005c1.887-1.389,3.728-2.836,5.522-4.338
		c0.177-0.148,0.352-0.297,0.527-0.446c0.805-0.683,1.602-1.375,2.387-2.08c0.091-0.082,0.184-0.161,0.274-0.243
		c0.203-0.183,0.398-0.375,0.6-0.56c0.671-0.615,1.341-1.231,1.997-1.862c0.127-0.123,0.253-0.247,0.38-0.371
		c0.488-0.474,0.965-0.96,1.445-1.443c0.243-0.245,0.492-0.485,0.733-0.732c0.144-0.147,0.289-0.294,0.432-0.443
		c0.552-0.572,1.09-1.157,1.63-1.741c0.268-0.289,0.543-0.57,0.807-0.862c0.025-0.028,0.049-0.056,0.074-0.083
		c0.67-0.742,1.325-1.498,1.975-2.258c0.083-0.097,0.17-0.191,0.253-0.289c0.148-0.174,0.296-0.349,0.443-0.524
		c0.004-0.004,0.007-0.009,0.011-0.013c1.506-1.793,2.957-3.634,4.35-5.521c0.004-0.005,0.008-0.01,0.012-0.016
		c0.124-0.168,0.246-0.337,0.369-0.506c0.344-0.472,0.677-0.953,1.014-1.43c0.267-0.379,0.541-0.752,0.804-1.135
		c0.085-0.124,0.172-0.245,0.256-0.369c0.673-0.988,1.332-1.987,1.974-2.997c0.069-0.108,0.136-0.218,0.204-0.327
		c0.571-0.905,1.128-1.819,1.674-2.741c0.104-0.175,0.208-0.35,0.311-0.526c1.197-2.049,2.329-4.139,3.397-6.267
		c0.005-0.009,0.01-0.018,0.014-0.028c0.104-0.207,0.207-0.414,0.309-0.622c0.3-0.607,0.592-1.219,0.881-1.833
		c0.035-0.074,0.072-0.147,0.106-0.221c0.11-0.235,0.221-0.47,0.33-0.706c0.33-0.718,0.652-1.441,0.967-2.167
		c0.085-0.196,0.173-0.391,0.257-0.587c0.782-1.828,1.516-3.682,2.203-5.559c0.018-0.048,0.037-0.096,0.055-0.145
		c0.027-0.075,0.053-0.151,0.08-0.226c0.313-0.867,0.616-1.738,0.908-2.614c0.079-0.236,0.153-0.474,0.23-0.71
		c0.236-0.723,0.466-1.449,0.688-2.178c0.085-0.28,0.168-0.562,0.251-0.843c0.165-0.559,0.322-1.121,0.479-1.684
		c0.041-0.148,0.086-0.295,0.126-0.444c0.076-0.279,0.152-0.558,0.227-0.837c0.199-0.751,0.389-1.505,0.573-2.262
		c0.056-0.231,0.115-0.462,0.169-0.694c0.22-0.933,0.429-1.87,0.626-2.812c0.011-0.053,0.023-0.105,0.034-0.158
		c0.029-0.138,0.052-0.278,0.08-0.416c0.388-1.908,0.73-3.834,1.02-5.776c0.004-0.026,0.009-0.053,0.013-0.079
		c0.02-0.137,0.038-0.274,0.058-0.411c0.057-0.393,0.104-0.789,0.157-1.183c0.067-0.502,0.139-1.003,0.199-1.507
		c0.026-0.214,0.049-0.43,0.074-0.645c0.096-0.84,0.183-1.683,0.26-2.529c0.02-0.222,0.04-0.445,0.059-0.668
		c0.025-0.297,0.043-0.596,0.066-0.893c0.045-0.58,0.092-1.16,0.128-1.743c0.011-0.176,0.023-0.351,0.033-0.527
		c0.043-0.755,0.072-1.515,0.1-2.274c0.01-0.279,0.029-0.556,0.037-0.836c0-0.015,0.001-0.03,0.002-0.045
		c0.033-1.11,0.049-2.225,0.049-3.343v-12.239C360.893,208.046,353.594,199.676,346.994,196.016z"/>
</g>
<path style="fill:#F0EEEE;" d="M241.391,406.264l0.169,98.236l173.325-0.298l-0.169-98.236c-0.016-9.531-7.757-17.244-17.287-17.228
	l-138.808,0.238C249.087,388.993,241.374,396.732,241.391,406.264z"/>
<path style="fill:#D9D4D4;" d="M397.427,388.738l-22.677,0.039c9.531-0.016,17.271,7.697,17.287,17.228l0.169,98.236l22.677-0.039
	l-0.169-98.236C414.698,396.434,406.959,388.721,397.427,388.738z"/>
<path d="M457.731,233.939l-27.918-87.275C410.714,86.97,367.666,37.466,311.71,10.846c-7.227-3.441-13.345-5.84-18.194-7.137
	c-18.799-5.002-57.106-4.934-75.91,0.138c-4.889,1.319-10.828,3.671-18.159,7.189c-27.995,13.433-52.527,32.249-72.914,55.926
	c-2.703,3.139-2.35,7.874,0.789,10.576c3.139,2.702,7.875,2.348,10.576-0.79c19.029-22.099,41.92-39.657,68.038-52.189
	c6.402-3.072,11.643-5.168,15.577-6.23c16.242-4.379,51.907-4.443,68.137-0.125c3.96,1.058,9.212,3.14,15.614,6.187
	c52.23,24.85,92.42,71.083,110.262,126.845l27.918,87.274c6.952,21.739,0.421,45.58-16.636,60.735l-80.685,71.666
	c-1.73,1.537-2.654,3.786-2.504,6.096c0.105,1.608,0.732,3.113,1.745,4.322l-20.008,0.034l41.497-37.53
	c3.071-2.778,3.31-7.522,0.531-10.593c-2.778-3.071-7.521-3.309-10.593-0.531l-28.6,25.867c-6.209-1.463-12.574-2.216-18.989-2.216
	c-0.036,0-0.073,0-0.11,0l-3.497,0.007v-16.817c23.514-10.712,42.903-28.739,55.333-51.436h25.224c3.592,0,7.146-0.56,10.549-1.609
	c0.756,1.64,1.444,3.147,2.046,4.48c0.443,0.979,0.847,1.879,1.208,2.69l-20.92,18.919c-3.071,2.778-3.31,7.522-0.531,10.592
	c2.779,3.074,7.522,3.311,10.593,0.532l24.925-22.542c2.369-2.143,3.121-5.552,1.873-8.492c-0.052-0.122-1.29-3.036-3.48-7.879
	c-4.885-10.807-12.137-26.118-20.524-41.508c-0.023-0.042-0.046-0.085-0.069-0.127c-0.396-0.726-0.793-1.451-1.194-2.176
	c-0.211-0.383-0.424-0.766-0.637-1.149c-0.301-0.541-0.601-1.083-0.905-1.623c-0.549-0.979-1.102-1.957-1.66-2.933
	c-0.729-1.278-1.454-2.525-2.176-3.757c-0.126-0.215-0.252-0.429-0.379-0.643c-3.659-6.21-7.217-11.821-10.602-16.703
	c-8.792-12.693-16.523-20.781-23.634-24.724c-19.744-10.964-55.122-17.51-94.636-17.51s-74.892,6.546-94.632,17.508
	c-0.889,0.493-1.788,1.051-2.697,1.674c-6.365,4.364-13.246,11.944-20.94,23.052c-0.001,0.001-0.001,0.002-0.001,0.003
	c-3.379,4.872-6.927,10.466-10.573,16.654c-0.141,0.238-0.281,0.476-0.422,0.716c-0.686,1.171-1.375,2.356-2.068,3.569
	c-0.03,0.052-0.06,0.102-0.09,0.155c-0.567,0.992-1.129,1.986-1.687,2.981c-0.27,0.481-0.537,0.962-0.805,1.443
	c-0.252,0.454-0.504,0.906-0.754,1.36c-0.372,0.674-0.741,1.346-1.109,2.02c-0.063,0.115-0.125,0.23-0.188,0.345
	c-8.357,15.347-15.581,30.597-20.45,41.371c-2.191,4.845-3.429,7.76-3.481,7.882c-1.248,2.94-0.496,6.349,1.873,8.491
	l112.011,101.299c1.435,1.298,3.235,1.938,5.028,1.938c2.046,0,4.085-0.832,5.565-2.47c2.778-3.071,2.54-7.814-0.532-10.592
	l-21.696-19.621c1.634-0.122,3.273-0.187,4.916-0.191l10.639-0.011c4.139-0.004,7.492-3.36,7.492-7.5v-18.815
	c11.16,3.376,22.755,5.087,34.598,5.087c11.844,0,23.439-1.711,34.598-5.087v18.666c0,1.991,0.792,3.901,2.201,5.309
	c1.407,1.403,3.313,2.191,5.299,2.191c0.005,0,0.01,0,0.014,0l11.006-0.021c1.594,0.002,3.18,0.058,4.757,0.167l-10.919,9.876
	l-44.351,0.076c-13.654,0.029-24.741,11.156-24.712,24.802l0.157,90.723h-98.722v-58.137c0-22.509,11.139-43.499,29.797-56.149
	c1.92-1.302,3.129-3.418,3.276-5.731c0.147-2.315-0.784-4.566-2.523-6.101L85.34,299.828
	c-17.107-15.092-23.721-38.908-16.849-60.673L96.12,151.78c5.734-18.142,13.847-35.429,24.114-51.378
	c2.242-3.483,1.236-8.124-2.247-10.365s-8.124-1.236-10.365,2.247c-10.986,17.068-19.668,35.565-25.803,54.976l-27.63,87.377
	c-8.658,27.42-0.324,57.425,21.229,76.438l73.703,65.027c-18.18,15.643-28.794,38.477-28.794,62.762V504.5
	c0,4.143,3.358,7.5,7.5,7.5h113.734h0.013h142.599c0.655,0,1.286-0.092,1.891-0.25l28.829-0.05c1.989-0.003,3.896-0.797,5.301-2.206
	c1.404-1.408,2.191-3.317,2.188-5.307l-0.17-98.23c-0.007-6.613-2.591-12.826-7.275-17.496c-4.675-4.659-10.882-7.225-17.489-7.225
	c-0.009,0-0.02,0-0.028,0l-29.061,0.05c-1.749-1.81-3.576-3.546-5.486-5.191l73.9-65.639
	C458.262,291.361,466.49,261.326,457.731,233.939z M386.152,273.111h-18.279c0.105-0.277,0.199-0.556,0.302-0.834
	c0.245-0.657,0.484-1.316,0.716-1.977c0.17-0.483,0.338-0.967,0.502-1.453c0.229-0.677,0.449-1.357,0.665-2.038
	c0.15-0.473,0.301-0.946,0.445-1.421c0.215-0.709,0.419-1.42,0.621-2.133c0.127-0.451,0.258-0.9,0.38-1.352
	c0.208-0.772,0.403-1.547,0.595-2.323c0.098-0.396,0.203-0.791,0.297-1.188c0.228-0.962,0.44-1.929,0.644-2.898
	c0.045-0.214,0.097-0.426,0.14-0.641c0.244-1.192,0.469-2.389,0.677-3.59c0.047-0.273,0.085-0.549,0.13-0.822
	c0.152-0.92,0.299-1.841,0.43-2.766c0.061-0.428,0.11-0.857,0.166-1.286c0.101-0.777,0.2-1.554,0.286-2.334
	c0.015-0.139,0.036-0.276,0.051-0.415c0.179,0.314,0.356,0.629,0.534,0.944c0.456,0.807,0.91,1.613,1.358,2.421
	c0.232,0.417,0.461,0.833,0.691,1.25c0.453,0.821,0.902,1.64,1.347,2.458c0.233,0.429,0.465,0.857,0.696,1.286
	c0.423,0.784,0.842,1.566,1.257,2.345c0.249,0.468,0.498,0.936,0.745,1.402c0.371,0.701,0.735,1.396,1.098,2.089
	c0.287,0.548,0.574,1.097,0.857,1.642c0.286,0.552,0.566,1.097,0.847,1.643c0.345,0.671,0.692,1.344,1.03,2.008
	c0.176,0.345,0.345,0.681,0.519,1.023c0.428,0.844,0.855,1.688,1.271,2.517c0.028,0.055,0.054,0.109,0.082,0.164
	c1.009,2.015,1.98,3.981,2.91,5.887C388.847,272.98,387.504,273.111,386.152,273.111z M144.126,273.111h-18.28
	c-1.351,0-2.694-0.132-4.01-0.39c1.382-2.831,2.857-5.8,4.407-8.853c0.11-0.216,0.216-0.428,0.327-0.645
	c0.39-0.765,0.788-1.54,1.187-2.314c0.228-0.443,0.454-0.883,0.686-1.33c0.327-0.631,0.66-1.267,0.992-1.902
	c0.317-0.606,0.635-1.213,0.958-1.824c0.286-0.542,0.576-1.085,0.865-1.629c0.375-0.704,0.754-1.411,1.136-2.12
	c0.266-0.493,0.532-0.985,0.8-1.478c0.408-0.75,0.82-1.502,1.235-2.254c0.265-0.481,0.53-0.962,0.797-1.442
	c0.409-0.736,0.824-1.472,1.239-2.207c0.204-0.361,0.407-0.722,0.612-1.082c0.015,0.145,0.037,0.288,0.053,0.432
	c0.083,0.757,0.18,1.51,0.278,2.264c0.058,0.45,0.111,0.901,0.174,1.35c0.126,0.894,0.269,1.784,0.415,2.674
	c0.05,0.304,0.092,0.609,0.145,0.912c0.206,1.196,0.431,2.387,0.674,3.574c0.049,0.24,0.106,0.478,0.157,0.717
	c0.199,0.943,0.404,1.884,0.627,2.821c0.097,0.409,0.204,0.815,0.305,1.223c0.19,0.766,0.382,1.531,0.587,2.292
	c0.123,0.457,0.255,0.911,0.384,1.366c0.201,0.708,0.403,1.416,0.617,2.12c0.144,0.476,0.295,0.95,0.446,1.425
	c0.216,0.681,0.437,1.361,0.665,2.038c0.163,0.483,0.33,0.964,0.499,1.445c0.234,0.666,0.475,1.329,0.722,1.992
	C143.929,272.561,144.022,272.838,144.126,273.111z M203.242,356.538c-6.467,0.017-12.888,0.796-19.148,2.294l-72.051-65.16
	c0.362-0.812,0.765-1.712,1.208-2.691c0.602-1.332,1.29-2.839,2.046-4.479c3.404,1.05,6.958,1.609,10.549,1.609h25.224
	c12.431,22.7,31.821,40.727,55.332,51.436v16.987L203.242,356.538z M216.821,327.709c-0.001-0.001-0.003-0.001-0.004-0.002
	c-0.033-0.013-0.067-0.026-0.101-0.039c-23.68-9.593-43.003-27.492-54.41-50.401c-7.241-14.529-10.912-30.198-10.912-46.572v-6.689
	v-3.174c0.058-0.081,0.118-0.168,0.175-0.249c0.245-0.343,0.484-0.669,0.724-1c0.286-0.393,0.572-0.789,0.851-1.165
	c0.239-0.322,0.472-0.63,0.706-0.94c0.269-0.357,0.539-0.715,0.802-1.057c0.231-0.3,0.456-0.587,0.682-0.875
	c0.255-0.325,0.509-0.649,0.758-0.959c0.221-0.276,0.438-0.542,0.654-0.807c0.242-0.297,0.483-0.59,0.719-0.873
	c0.211-0.253,0.419-0.498,0.625-0.739c0.23-0.27,0.458-0.535,0.682-0.792c0.201-0.23,0.399-0.455,0.596-0.675
	c0.218-0.244,0.432-0.481,0.644-0.713c0.191-0.209,0.381-0.414,0.567-0.613c0.207-0.22,0.409-0.434,0.61-0.642
	c0.18-0.187,0.359-0.372,0.534-0.549c0.197-0.2,0.39-0.391,0.581-0.579c0.168-0.165,0.336-0.331,0.499-0.487
	c0.187-0.18,0.37-0.35,0.551-0.518c0.157-0.146,0.315-0.294,0.468-0.432c0.178-0.161,0.351-0.312,0.523-0.462
	c0.145-0.126,0.291-0.255,0.431-0.374c0.171-0.145,0.334-0.278,0.499-0.412c0.133-0.108,0.268-0.22,0.396-0.322
	c0.161-0.128,0.315-0.243,0.47-0.361c0.122-0.092,0.246-0.189,0.364-0.276c0.157-0.115,0.306-0.218,0.456-0.323
	c0.105-0.073,0.214-0.152,0.315-0.221c0.163-0.11,0.316-0.206,0.47-0.304c0.081-0.051,0.166-0.109,0.244-0.157
	c0.228-0.14,0.447-0.268,0.655-0.384c37.555-20.853,137.154-20.852,174.711,0.002c0.209,0.116,0.429,0.245,0.657,0.385
	c0.069,0.042,0.144,0.093,0.214,0.138c0.163,0.103,0.327,0.207,0.499,0.323c0.094,0.064,0.196,0.137,0.293,0.205
	c0.158,0.11,0.316,0.219,0.481,0.341c0.108,0.079,0.223,0.169,0.334,0.253c0.165,0.125,0.329,0.248,0.501,0.384
	c0.121,0.095,0.247,0.201,0.372,0.302c0.172,0.14,0.344,0.28,0.523,0.432c0.133,0.113,0.271,0.235,0.408,0.354
	c0.181,0.158,0.362,0.316,0.549,0.486c0.143,0.129,0.291,0.268,0.438,0.404c0.192,0.178,0.385,0.358,0.583,0.549
	c0.152,0.146,0.309,0.3,0.465,0.454c0.204,0.2,0.409,0.404,0.619,0.617c0.162,0.164,0.327,0.336,0.493,0.508
	c0.215,0.223,0.433,0.452,0.655,0.69c0.172,0.183,0.346,0.372,0.521,0.564c0.228,0.249,0.459,0.505,0.693,0.768
	c0.181,0.203,0.363,0.41,0.548,0.621c0.24,0.275,0.484,0.559,0.732,0.849c0.191,0.224,0.383,0.45,0.577,0.683
	c0.252,0.302,0.51,0.616,0.769,0.934c0.2,0.246,0.401,0.492,0.606,0.747c0.265,0.331,0.537,0.677,0.81,1.025
	c0.21,0.268,0.419,0.534,0.633,0.812c0.279,0.363,0.566,0.743,0.853,1.124c0.218,0.29,0.435,0.576,0.658,0.876
	c0.296,0.4,0.6,0.82,0.905,1.238c0.223,0.308,0.444,0.609,0.672,0.928c0.061,0.085,0.125,0.178,0.186,0.264v3.174v6.689
	c0,3.07-0.129,6.116-0.387,9.133c-0.192,2.246-0.462,4.474-0.796,6.688c-0.862,5.72-2.189,11.331-3.991,16.81
	c-1.563,4.75-3.477,9.4-5.74,13.94c-0.001,0.002-0.001,0.004-0.002,0.005c-11.406,22.907-30.729,40.805-54.415,50.399
	c-12.464,5.063-25.679,7.629-39.275,7.629C242.44,335.299,229.26,332.745,216.821,327.709z M397.439,396.235
	c0.004,0,0.007,0,0.011,0c2.604,0,5.053,1.012,6.897,2.849c1.845,1.839,2.861,4.285,2.864,6.894l0.157,90.734l-23.153,0.04
	c-0.014,0-0.029-0.002-0.043-0.002c-0.012,0-0.024,0.002-0.036,0.002l-135.09,0.235l-0.157-90.738
	c-0.011-5.378,4.361-9.762,9.742-9.773l47.191-0.081c0.008,0,0.017,0.001,0.025,0.001c0.01,0,0.02-0.001,0.03-0.001l59.156-0.102
	c0.024,0,0.048,0.004,0.072,0.004c0.03,0,0.06-0.004,0.091-0.004L397.439,396.235z"/>
<path d="M255.999,300.511c-4.142,0-7.5,3.357-7.5,7.5v9.999c0,4.143,3.358,7.5,7.5,7.5c4.143,0,7.5-3.357,7.5-7.5v-9.999
	C263.499,303.868,260.142,300.511,255.999,300.511z"/>
<path d="M314.531,277.43c-1.435-3.885-5.747-5.871-9.633-4.437l-23.05,8.514L260.05,267.51c-2.468-1.583-5.634-1.585-8.104,0.001
	l-21.797,13.995l-23.05-8.514c-3.886-1.435-8.199,0.551-9.633,4.437c-1.435,3.886,0.552,8.199,4.437,9.633l26.556,9.808
	c2.208,0.815,4.671,0.549,6.651-0.725l20.89-13.412l20.891,13.413c1.225,0.786,2.633,1.189,4.052,1.189
	c0.876,0,1.756-0.153,2.599-0.465l26.556-9.808C313.981,285.629,315.967,281.315,314.531,277.43z"/>
<path d="M292.801,219.651c10.858-10.86,28.531-10.86,39.391,0c1.465,1.464,3.385,2.196,5.304,2.196c1.919,0,3.839-0.732,5.304-2.196
	c2.929-2.93,2.929-7.678,0-10.606c-16.71-16.708-43.894-16.708-60.604,0c-2.929,2.93-2.929,7.678,0,10.606
	C285.123,222.579,289.871,222.579,292.801,219.651z"/>
<path d="M219.198,219.651c1.464,1.464,3.384,2.196,5.303,2.196s3.839-0.732,5.303-2.197c2.929-2.929,2.929-7.678,0-10.605
	c-16.708-16.708-43.895-16.708-60.603,0c-2.929,2.929-2.929,7.678,0,10.605c2.929,2.93,7.678,2.929,10.605,0.001
	C190.667,208.791,208.339,208.791,219.198,219.651z"/>
<path d="M342.088,439.119h-9.797l7.102-7.101c2.929-2.93,2.929-7.678,0-10.606c-2.93-2.928-7.678-2.928-10.607,0l-19.903,19.903
	c-2.145,2.145-2.786,5.371-1.625,8.174c1.16,2.803,3.896,4.63,6.929,4.63h9.796l-7.1,7.1c-2.93,2.929-2.93,7.678-0.001,10.606
	c1.465,1.465,3.384,2.197,5.304,2.197c1.919,0,3.839-0.732,5.303-2.196l19.903-19.902c2.146-2.146,2.787-5.371,1.626-8.174
	C347.856,440.946,345.121,439.119,342.088,439.119z"/>
<g>
</g>
<g>
</g>
<g>
</g>
<g>
</g>
<g>
</g>
<g>
</g>
<g>
</g>
<g>
</g>
<g>
</g>
<g>
</g>
<g>
</g>
<g>
</g>
<g>
</g>
<g>
</g>
<g>
</g>
</svg>
